<?xml version="1.0" encoding="UTF-8"?>
<svg width="100pt" height="100pt" version="1.1" viewBox="0 0 100 100" xmlns="http://www.w3.org/2000/svg">
 <g>
  <path d="m64.336 66.973c2.7773-0.67969 6.8672-2.1484 9.6641-5.0625 1.0391-1.0898 1.8906-2.3867 2.4375-3.9023 0.78516-2.1992 0.90234-4.9062-0.066406-8.1953-0.10156-0.33984-0.22266-0.71484-0.33984-1.0742l-8.2656 7.125c0.30859-0.69922 7.8906-17.145 0.15234-25.289 0 0-2.0117 9.2031-5.6914 12.391 0 0-10.309-14.691-5.8984-38.242 0 0-18.387 10.617-18.199 29.926 0 0-3.3047-1.7734-6.0664-10.805 0 0-7.3633 7.2617-3.3047 25.496 0 0-1.2969 1.0547-5.5234 0 0.058594 0.19922 0.83594 4.9336 3.6992 10.09 1.5078 2.8594 3.6602 5.6562 6.2891 7.7578 1.9141 1.5312 4.6836-0.29297 4.1289-2.6797-0.21484-0.9375-0.44922-1.8359-0.66797-2.5547-0.70703-2.3164-1.2695-5.0117-1.4766-8.0078-0.09375-1.375 1.625-2.0781 2.5273-1.0391 1.6133 1.8633 3.7266 3.7812 5.543 3.6953 0 0-0.125-15.102 3.293-22.273 0.64063-1.3398 2.6992-0.9375 2.8047 0.54297 0.17578 2.4727 0.87109 5.8594 2.9727 9.4336 1.6797 2.8555 2.9648 5.9219 3.4453 9.1992 0.30078 2.0547 0.45312 4.4922 0.24609 7.1836-0.11719 1.5078 1.418 2.6016 2.8242 2.043 1.1992-0.47656 2.5664-0.054688 3.2891 1.0117l2.1836 3.2305"/>
  <path d="m20.703 6.3398s-16.359 16.957-1.5117 21.781c0 0 0.5-7.1758 4.1133-10.656 0 0 4.2227-4.957-2.6016-11.125z"/>
  <path d="m88.09 20.473s-16.359 16.957-1.5117 21.781c0 0 0.5-7.1758 4.1133-10.656 0 0 4.2266-4.957-2.6016-11.125z"/>
  <path d="m69.5 8.4648s-13.465 12.969 0 15.688c0 0 0-5.168 2.9922-7.8438 0 0 3.4414-3.7656-2.9922-7.8438z"/>
  <path d="m14 36.23s-13.465 12.969 0 15.688c0 0 0-5.168 2.9922-7.8438 0 0 3.4414-3.7617-2.9922-7.8438z"/>
  <path d="m41.844 76.637-7.6289 2.3516-6.6211 2.0547-10.598-2.3516c-1.5625-0.35547-2.707-1.7578-2.6289-3.3594v-0.15625c0.13672-1.9375 2.0352-3.2617 3.9336-2.9062z"/>
  <path d="m91.973 89.918c0 0.13672-0.019531 0.25781-0.019531 0.39453-0.23828 2.6289-2.8281 4.3867-5.3984 3.8164l-27.457-6.1094 17.93-4.8633 11.309 2.0938c2.2148 0.41797 3.7773 2.418 3.6367 4.668z"/>
  <path d="m85.578 76.758c-43.621 11.824 36.363-9.8516-67.902 18.402-1.2461 0.33594-2.5703-0.039062-3.3984-1.0273l-0.058594-0.058593c-1.4844-1.8008-0.67188-4.5469 1.5625-5.2383 92.215-28.5 60.41-18.668 67.289-20.797 1.8398-0.57422 3.8555 0.058594 4.9805 1.6016 0.039063 0.039063 0.058594 0.058594 0.078125 0.097656 1.8398 2.5742 0.49609 6.1914-2.5508 7.0195z"/>
 </g>
</svg>
