<?xml version="1.0" encoding="UTF-8"?>
<svg fill="#37373B" width="100pt" height="100pt" version="1.1" viewBox="0 0 100 100" xmlns="http://www.w3.org/2000/svg">
 <g>
  <path d="m43.664 13.285 0.53125-0.25391c0.33984-0.16406 0.55859-0.50781 0.56641-0.88281 0.007812-0.37891-0.20312-0.72656-0.53906-0.90234-3.8008-1.9844-8.4492-1.5859-11.84 1.0156-2.9727 2.2812-4.5508 5.8789-4.2969 9.5391-3.4688-1.1953-7.3516-0.60156-10.324 1.6758-3.3906 2.6016-4.9844 6.9883-4.0547 11.172 0.082031 0.36719 0.36719 0.66016 0.73438 0.75391 0.082032 0.019531 0.16406 0.03125 0.24219 0.03125 0.28906 0 0.5625-0.125 0.75781-0.34766l0.38281-0.44531c2.8359-3.3438 8.7422-10.293 18-3.7852 0.35938 0.25 0.83594 0.24219 1.1836-0.023438 0.34766-0.26562 0.48047-0.72656 0.33203-1.1367-3.8828-10.637 4.3633-14.535 8.3242-16.41zm-10.957 14.535c-8.293-4.3359-14.211 0.83984-17.258 4.1992 0.070312-2.6953 1.3438-5.2812 3.5312-6.9609 1.6133-1.2383 3.5547-1.8672 5.5039-1.8672 1.5039 0 3.0156 0.375 4.3906 1.1328 0.34766 0.19531 0.78125 0.16406 1.0938-0.082031 0.31641-0.24219 0.45703-0.64844 0.36328-1.0352-0.86719-3.5 0.41406-7.1719 3.2734-9.3672 2.1875-1.6797 5.0117-2.2344 7.6367-1.6016-4.0391 2.0781-10.57 6.4531-8.5352 15.582z"/>
  <path d="m75.891 22.875 0.60156-0.10156c0.37109-0.066407 0.67578-0.33594 0.78125-0.69922 0.10937-0.36328 0.003906-0.75391-0.27344-1.0156-3.2227-3.0391-7.9531-3.9414-12.055-2.3047-3.6094 1.4414-6.1953 4.6016-6.9492 8.332-3.1172-2.1875-7.1641-2.6953-10.777-1.2539-4.0977 1.6367-6.9062 5.5469-7.1523 9.9688-0.023437 0.375 0.17188 0.73438 0.5 0.92188s0.73438 0.17578 1.0508-0.03125l0.50781-0.33984c3.7734-2.5391 11.633-7.8242 19.059 1.2891 0.19531 0.23828 0.48047 0.36719 0.77344 0.36719 0.125 0 0.25-0.023437 0.37109-0.070312 0.40625-0.16406 0.66016-0.57031 0.625-1.0039-0.88281-11.719 8.4531-13.297 12.938-14.059zm-14.965 11.539c-3.0312-2.8828-6.1211-3.8789-8.9766-3.8789-3.8281 0-7.2344 1.7891-9.5039 3.2227 0.8125-2.7227 2.8281-4.9883 5.5234-6.0625 3.4766-1.3867 7.4453-0.58203 10.109 2.0547 0.28125 0.28125 0.70703 0.36719 1.0742 0.21875 0.36719-0.14844 0.61719-0.5 0.62891-0.89844 0.11719-3.7461 2.4375-7.0625 5.9141-8.4531 2.6953-1.0742 5.7188-0.82031 8.1797 0.59375-4.5938 0.91797-12.453 3.4219-12.949 13.203z"/>
  <path d="m83.738 41.59c-1.5234-0.007813-2.9414-0.82812-3.707-2.1406-1.1445-1.9609-3.1797-3.1328-5.4531-3.1328s-4.3086 1.1719-5.4531 3.1328c-0.76562 1.3125-2.1875 2.1328-3.707 2.1406-2.2695 0.007812-4.3047 1.1875-5.4375 3.1562-1.1367 1.9688-1.1406 4.3203-0.011719 6.2891 0.75781 1.3203 0.75781 2.9609 0 4.2812-1.125 1.9688-1.125 4.3203 0.011719 6.2891 1.1328 1.9688 3.168 3.1484 5.4375 3.1562 1.5195 0.007812 2.9414 0.82422 3.707 2.1406 0.97656 1.6758 2.6094 2.7695 4.4805 3.0508v18.047h-47.125v-18.059c1.8477-0.29688 3.457-1.3828 4.4258-3.043 0.76562-1.3125 2.1875-2.1328 3.707-2.1406 2.2695-0.007812 4.3047-1.1875 5.4375-3.1562 1.1367-1.9688 1.1406-4.3164 0.011719-6.2891-0.75781-1.3203-0.75781-2.9609 0-4.2812 1.1289-1.9688 1.125-4.3203-0.011719-6.2891-1.1367-1.9648-3.1719-3.1445-5.4414-3.1562-1.5195-0.007813-2.9414-0.82813-3.707-2.1406-1.1445-1.9609-3.1797-3.1328-5.4531-3.1328-2.2695 0-4.3086 1.1719-5.4531 3.1328-0.76562 1.3125-2.1875 2.1328-3.707 2.1406-2.2695 0.007812-4.3047 1.1875-5.4375 3.1562-1.1367 1.9688-1.1406 4.3203-0.011718 6.2891 0.75781 1.3203 0.75781 2.9609 0 4.2812-1.125 1.9688-1.125 4.3203 0.011718 6.2891 1.1328 1.9688 3.168 3.1484 5.4375 3.1562 1.5234 0.007813 2.9453 0.82813 3.7109 2.1406 0.97656 1.6758 2.6094 2.7695 4.4805 3.0508v18.051h-13.488c-0.55469 0-1 0.44531-1 1s0.44531 1 1 1h78.008c0.55469 0 1-0.44531 1-1s-0.44531-1-1-1h-13.395v-18.059c1.8477-0.29688 3.457-1.3828 4.4258-3.043 0.76562-1.3125 2.1875-2.1328 3.707-2.1406 2.2695-0.007812 4.3047-1.1875 5.4375-3.1562 1.1367-1.9688 1.1406-4.3164 0.011719-6.2891-0.75781-1.3203-0.75781-2.9609 0-4.2812 1.1289-1.9688 1.125-4.3203-0.011719-6.2891-1.1328-1.9648-3.168-3.1406-5.4375-3.1523zm-58.258 6.3008c-0.55469 0-1 0.44531-1 1v6.2266c-2.6367-0.4375-4.6523-2.7148-4.6523-5.457 0-0.55469-0.44531-1-1-1s-1 0.44531-1 1c0 3.8477 2.9102 7.0234 6.6523 7.4766v10.781c-1.1484-0.26172-2.1406-0.97266-2.75-2.0234-1.1211-1.9258-3.2031-3.125-5.4297-3.1328-1.5508-0.007813-2.9414-0.8125-3.7148-2.1562-0.77344-1.3438-0.77734-2.9492-0.007813-4.2969 1.1055-1.9336 1.1055-4.3359 0-6.2656-0.76953-1.3477-0.76562-2.9531 0.007813-4.2969 0.77344-1.3438 2.1641-2.1484 3.7148-2.1562 2.2266-0.007813 4.3086-1.2109 5.4297-3.1328 0.78125-1.3398 2.1719-2.1406 3.7227-2.1406s2.9453 0.80078 3.7266 2.1406c1.1211 1.9258 3.1992 3.125 5.4297 3.1328 1.5508 0.007812 2.9375 0.8125 3.7148 2.1562 0.77734 1.3438 0.78125 2.9492 0.007812 4.2969-1.1055 1.9336-1.1055 4.3359 0 6.2656 0.76953 1.3477 0.76562 2.9531-0.007812 4.2969-0.77344 1.3438-2.1641 2.1484-3.7148 2.1562-2.2266 0.007812-4.3047 1.2109-5.4258 3.1328-0.60156 1.0352-1.5703 1.7422-2.6953 2.0156v-6.75c3.9883-0.42578 7.1055-3.7969 7.1055-7.8828 0-0.55469-0.44531-1-1-1s-1 0.44531-1 1c0 2.9805-2.2227 5.4453-5.1055 5.8594l-0.007812-10.246c0-0.55469-0.44922-1-1-1zm61.973 8.418c0.76953 1.3477 0.76562 2.9531-0.007813 4.2969-0.77344 1.3438-2.1641 2.1484-3.7148 2.1562-2.2266 0.007812-4.3047 1.2109-5.4297 3.1328-0.60156 1.0352-1.5703 1.7422-2.6953 2.0156v-6.75c3.9883-0.42578 7.1055-3.7969 7.1055-7.8828 0-0.55469-0.44531-1-1-1-0.55469 0-1 0.44531-1 1 0 2.9805-2.2227 5.4453-5.1055 5.8594v-10.246c0-0.55469-0.44531-1-1-1-0.55469 0-1 0.44531-1 1v6.2266c-2.6367-0.4375-4.6523-2.7148-4.6523-5.457 0-0.55469-0.44531-1-1-1s-1 0.44531-1 1c0 3.8477 2.9102 7.0234 6.6523 7.4766v10.781c-1.1484-0.26172-2.1406-0.97266-2.75-2.0234-1.1211-1.9258-3.2031-3.125-5.4297-3.1328-1.5508-0.007813-2.9414-0.8125-3.7148-2.1562-0.77344-1.3438-0.77734-2.9492-0.007813-4.2969 1.1055-1.9336 1.1055-4.3359 0-6.2656-0.76953-1.3477-0.76562-2.9531 0.007813-4.2969 0.77344-1.3438 2.1641-2.1484 3.7148-2.1562 2.2266-0.007813 4.3086-1.2109 5.4297-3.1328 0.78125-1.3398 2.1719-2.1406 3.7266-2.1406 1.5508 0 2.9453 0.80078 3.7227 2.1406 1.1211 1.9258 3.1992 3.125 5.4297 3.1328 1.5508 0.007812 2.9375 0.8125 3.7148 2.1562 0.77734 1.3438 0.78125 2.9492 0.007812 4.2969-1.1094 1.9297-1.1094 4.332-0.003906 6.2656z"/>
 </g>
</svg>
