<?xml version="1.0" encoding="UTF-8"?>
<svg width="100pt" height="100pt" version="1.1" viewBox="0 0 100 100" xmlns="http://www.w3.org/2000/svg">
 <path d="m95.078 40c-0.13281-1.1484-0.72266-2.1914-1.6367-2.8984l-10.16-8v-15.371h2.3711-0.003906c0.26562 0 0.51953-0.10547 0.70703-0.29297s0.29297-0.44141 0.29297-0.70703v-6c0-0.26562-0.10547-0.51953-0.29297-0.70703s-0.44141-0.29297-0.70703-0.29297h-14.488c-0.55078 0-1 0.44531-1 1v6c0 0.26562 0.10547 0.51953 0.29297 0.70703s0.44141 0.29297 0.70703 0.29297h2.3711v7.7812l-22.91-17.941c-0.36328-0.28906-0.87891-0.28906-1.2422 0l-42.82 33.539c-0.91016 0.71094-1.5 1.7578-1.6406 2.9062-0.13672 1.1484 0.1875 2.3047 0.90234 3.2148 0.71094 0.90625 1.7539 1.4922 2.8984 1.6289s2.2969-0.1875 3.2031-0.89844l2.4414-1.8984-0.003906-0.003906c0.45312 0.44922 0.98047 0.81641 1.5625 1.082-1.6758 2.3359-1.6758 5.4805 0 7.8203l-0.16016 0.070312c-0.16406 0.070312-0.32422 0.16016-0.47266 0.25781-0.10547 0.0625-0.20312 0.13281-0.30078 0.21094-0.14062 0.097656-0.26953 0.20703-0.38672 0.32812-0.085937 0.0625-0.16406 0.13281-0.23047 0.21094-1.0078 1.0078-1.5703 2.375-1.5625 3.8008-0.011719 1.7305 0.80078 3.3672 2.1914 4.3984 0.078125 0.066407 0.16406 0.12891 0.25 0.18359 0.17188 0.11328 0.35156 0.21094 0.53906 0.29688l0.17188 0.089844c-1.6758 2.3438-1.6758 5.4883 0 7.832-1.9297 0.87891-3.168 2.8008-3.1797 4.918-0.007812 1.4336 0.5625 2.8125 1.5781 3.8203 0.46484 0.46094 1.0078 0.83203 1.6016 1.1016-0.81641 1.1406-1.2578 2.5078-1.2617 3.9102-0.003907 1.4062 0.44141 2.7812 1.2695 3.918-1.9297 0.87891-3.1758 2.8008-3.1875 4.9219 0 2.9883 2.4219 5.4102 5.4102 5.4102h63.648c2.9844-0.007813 5.4062-2.4258 5.4102-5.4102-0.003906-2.125-1.2461-4.0508-3.1797-4.9297 1.6875-2.3398 1.6875-5.4922 0-7.832 1.9297-0.87109 3.1758-2.7891 3.1914-4.9102-0.003907-2.125-1.2461-4.0508-3.1836-4.9297 1.6797-2.3359 1.6797-5.4844 0-7.8203l0.12891-0.058594h0.003907c0.19922-0.089844 0.39062-0.19531 0.57031-0.32031l0.30859-0.21094c0.20703-0.15234 0.40234-0.32422 0.58203-0.50781 1.0234-1.0078 1.5977-2.3906 1.5898-3.832-0.019531-2.1055-1.2617-4.0117-3.1836-4.8789 1.6797-2.3359 1.6797-5.4844 0-7.8203 0.58594-0.26172 1.1172-0.625 1.5703-1.0781l2.4219 1.8984c1.3906 1.0938 3.3086 1.2344 4.8477 0.35938 1.5352-0.87891 2.3867-2.6055 2.1523-4.3594zm-22.918-32.262h12.488v4h-12.488zm3.3711 6h5.75v13.84l-5.75-4.5zm7.7969 33.262c-0.003906 2.6328-2.1367 4.7656-4.7695 4.7695-1.0977-0.007812-2.1641-0.40234-3-1.1211-1.1055-0.88672-1.75-2.2305-1.7578-3.6484 0.11719-2.5469 2.2148-4.5508 4.7656-4.5508 2.5469 0 4.6484 2.0039 4.7617 4.5508zm-10.59 3.4688h-9.7383v-3.3984c0-0.26562-0.10547-0.51953-0.29297-0.70703s-0.44141-0.29297-0.70703-0.29297h-24c-0.55078 0-1 0.44922-1 1v3.3984h-9.7383c1.25-2.1094 1.25-4.7383 0-6.8477h45.477c-1.25 2.1094-1.25 4.7383 0 6.8477zm8.8633 17.922c-1.7578 1.4609-4.3047 1.4609-6.0625 0-1.543-1.2812-2.1172-3.3945-1.4375-5.2812 0.68359-1.8867 2.4727-3.1406 4.4766-3.1406 2.0078 0 3.7969 1.2539 4.4805 3.1406 0.67969 1.8867 0.10547 4-1.4375 5.2812zm1.7305 14h-0.003906c0.007813 1.9297-1.1562 3.6719-2.9375 4.4141-1.7852 0.74219-3.8398 0.33203-5.2031-1.0312-1.3672-1.3672-1.7734-3.4219-1.0312-5.2031 0.73828-1.7852 2.4844-2.9453 4.4141-2.9414 2.625 0.007813 4.7539 2.1328 4.7578 4.7617zm-10.594 3.418h-9.7383v-6.8086h9.7695c-1.2539 2.1094-1.2539 4.7305 0 6.8398zm-9.7383-24.508h9.7695c-1.2539 2.1055-1.2539 4.7305 0 6.8398h-9.7695zm-46.328 21.09c0-1.9297 1.1602-3.6719 2.9453-4.4102 1.7852-0.73438 3.8359-0.32422 5.1992 1.0391 1.3633 1.3672 1.7695 3.4219 1.0273 5.2031s-2.4844 2.9414-4.4141 2.9375c-2.6289-0.003906-4.7578-2.1406-4.7578-4.7695zm10.59-3.3906h9.7383v6.8398h-9.7383c1.25-2.1094 1.25-4.7305 0-6.8398zm-8.8398-10.602c-1.7734-1.4766-2.2227-4.0117-1.0703-6.0078 1.1523-1.9961 3.5742-2.875 5.7383-2.082 2.1641 0.79297 3.4414 3.0312 3.0312 5.2969-0.41406 2.2695-2.3945 3.9141-4.6992 3.8945-1.1094-0.007812-2.1797-0.40234-3.0234-1.1211zm8.8398-7.1016 9.7383 0.003906v6.8398h-9.7383c1.25-2.1094 1.25-4.7344 0-6.8398zm-1.0625-14.297c0 1.418-0.63281 2.7617-1.7305 3.6602-1.7539 1.4727-4.3125 1.4727-6.0703 0-1.0938-0.89844-1.7305-2.2422-1.7266-3.6602 0.11328-2.5469 2.2148-4.5508 4.7617-4.5508 2.5508 0 4.6484 2.0039 4.7656 4.5508zm-11.449 8.8789c-0.007812-0.90625 0.35547-1.7734 1-2.4102l0.15625-0.14062 0.10938-0.10938h0.003906c0.054688-0.027344 0.10547-0.066406 0.15234-0.10938l0.10938-0.078125 0.10156-0.058594-0.003906-0.003906c0.082032-0.054688 0.17188-0.10156 0.26172-0.14062l0.33984-0.14062v0.003906c0.10938-0.054687 0.23047-0.09375 0.34766-0.12109h0.16016c0.10156 0.070313 0.21875 0.12109 0.32031 0.19141l0.46875 0.28125 0.35938 0.17188 0.003906-0.003906c0.87891 0.40234 1.832 0.61719 2.8008 0.62891 1.0039-0.011719 1.9961-0.24609 2.8984-0.69141l0.28906-0.14063v0.003907c0.17188-0.09375 0.33203-0.19141 0.49219-0.30078 0.11719-0.066407 0.23047-0.13672 0.33984-0.21094h11.539v6.8008h-11.539c-0.11328-0.082031-0.23047-0.15625-0.35156-0.22266-0.14844-0.10547-0.30859-0.20703-0.46875-0.29688l-0.30859-0.14062h-0.003906c-0.90234-0.42578-1.8906-0.64453-2.8867-0.64062-0.97266 0.007812-1.9297 0.22266-2.8125 0.62891l-0.33984 0.16016c-0.17187 0.089844-0.32812 0.19141-0.48828 0.28906l-0.30078 0.17969h-0.070312v0.003907c-0.21875-0.050781-0.43359-0.12109-0.64063-0.21094h-0.10156l-0.10156-0.050781h0.003906c-0.10547-0.046875-0.20703-0.10938-0.30078-0.17969l-0.17969-0.12109c-0.88672-0.66016-1.3945-1.7148-1.3594-2.8203zm0 17.68c0.007812-1.6367 1.1797-3.0391 2.7891-3.3398 1.1406 0.8125 2.5039 1.2539 3.9023 1.2617 1.4414-0.007813 2.8438-0.47656 4-1.3398h11.559v6.8594h-11.539c-2.3477-1.7578-5.5625-1.7891-7.9414-0.078125-0.67188-0.11719-1.2891-0.4375-1.7695-0.92188-0.65625-0.64062-1.0195-1.5234-1-2.4414zm1 20.078v0.003906c-0.64453-0.63672-1.0078-1.5039-1-2.4102 0.007812-1.6328 1.168-3.0312 2.7695-3.3398 2.375 1.7227 5.6016 1.6914 7.9414-0.082031h11.539v6.8281l-18.84 0.003906c-0.90625 0.003906-1.7734-0.35547-2.4102-1zm23.25-33.336v-12.23h22v46.57h-22zm46.25 30.93c0 1.8828-1.5273 3.4102-3.4102 3.4102h-18.84v-6.832h11.539c2.3477 1.7695 5.5703 1.8047 7.9492 0.082031 1.6055 0.30469 2.7617 1.707 2.7617 3.3398zm0-17.672c-0.007812 1.6289-1.168 3.0273-2.7695 3.332-2.3789-1.7109-5.5938-1.6797-7.9414 0.078125h-11.539v-6.8281h11.602c2.3242 1.7578 5.5312 1.7891 7.8867 0.070313 1.6172 0.29687 2.7891 1.707 2.793 3.3477zm0-17.68c0.007812 0.90625-0.35547 1.7773-1 2.4102-0.11719 0.11719-0.23828 0.22656-0.37109 0.33203l-0.19141 0.12891h0.003906c-0.10938 0.078125-0.22656 0.14062-0.35156 0.19141l-0.21094 0.10156v-0.003907c-0.17969 0.074219-0.36719 0.13281-0.55859 0.17188h-0.070312c-0.10156-0.070313-0.21094-0.12109-0.30859-0.17969l-0.46875-0.28906-0.35938-0.16016-0.003906-0.003906c-0.875-0.40625-1.832-0.62109-2.8008-0.62891-1.0078 0.007812-2.0039 0.24219-2.9102 0.69141l-0.28125 0.12891c-0.17188 0.089844-0.32813 0.19922-0.48828 0.30078-0.16016 0.10156-0.23828 0.14063-0.33984 0.21875h-11.539v-6.8203h11.539c0.10938 0.078125 0.23047 0.14062 0.35156 0.21875v0.003906c0.15234 0.10156 0.30859 0.19922 0.46875 0.28906l0.32031 0.14844c1.793 0.88281 3.8906 0.88281 5.6797 0l0.35156-0.16016c0.16797-0.078125 0.32812-0.17578 0.48047-0.28906 0.10547-0.050782 0.21094-0.11328 0.30859-0.17969 0.0625-0.007812 0.125-0.007812 0.19141 0 0.12109 0.027344 0.23828 0.066406 0.34766 0.12109l0.21094 0.078125c1.2422 0.56641 2.0312 1.8164 2 3.1797zm-2.7617-14.328c-2.3789-1.7188-5.5977-1.6914-7.9492 0.070313h-49.078c-2.3477-1.7578-5.5625-1.793-7.9414-0.082032-0.5625-0.11328-1.082-0.36719-1.5195-0.73828l7.6797-6h52.68l7.6797 6c-0.44141 0.37891-0.97656 0.63672-1.5508 0.75zm-47.559-15.551h30.141l8.7383 6.8281h-47.617zm2.5508-2 12.52-9.8398 12.52 9.8398zm55.129 18c-0.38281 0.49219-0.94922 0.80859-1.5664 0.88281-0.61719 0.074219-1.2422-0.097656-1.7344-0.48437l-38.688-30.297c-0.36328-0.28906-0.87891-0.28906-1.2422 0l-38.688 30.289c-0.49219 0.38281-1.1172 0.55859-1.7383 0.48047-0.62109-0.074219-1.1836-0.39453-1.5664-0.88672-0.80078-1.0234-0.62109-2.5039 0.40234-3.3047l42.211-33.051 42.211 33.051c0.49219 0.38672 0.8125 0.94922 0.88672 1.5703 0.074219 0.625-0.10156 1.25-0.48828 1.7383zm-71.18 42.879c-1.0078 0-1.9141-0.60547-2.3008-1.5352-0.38672-0.92969-0.17188-2.0039 0.53906-2.7148 0.71484-0.71094 1.7852-0.92578 2.7148-0.53906 0.92969 0.38672 1.5391 1.293 1.5391 2.3008 0 0.66016-0.26172 1.2969-0.72656 1.7617-0.46875 0.46875-1.1055 0.73047-1.7656 0.72656zm57.141-5c1.0078 0 1.9141 0.60938 2.3008 1.5391 0.38672 0.92969 0.17188 2-0.53906 2.7109-0.71484 0.71484-1.7852 0.92578-2.7148 0.54297-0.92969-0.38672-1.5391-1.293-1.5391-2.3008 0.011719-1.3672 1.125-2.4727 2.4922-2.4727zm-57.141-12.668c-1.0078 0-1.9141-0.60938-2.3008-1.5391-0.38672-0.92969-0.17188-2 0.53906-2.7109 0.71484-0.71484 1.7852-0.92578 2.7148-0.54297 0.92969 0.38672 1.5391 1.293 1.5391 2.3008 0 1.375-1.1172 2.4922-2.4922 2.4922zm59.621-2.4883v-0.003906c0 1.0078-0.60938 1.918-1.5391 2.3008-0.93359 0.38672-2.0039 0.17188-2.7148-0.54297-0.71094-0.71484-0.92188-1.7852-0.53516-2.7148 0.39062-0.93359 1.3008-1.5352 2.3086-1.5312 1.3711 0.003906 2.4805 1.1172 2.4805 2.4883zm-59.621-20.164c1.0156-0.023438 1.9453 0.57422 2.3477 1.5078s0.19531 2.0195-0.52344 2.7383c-0.71875 0.72266-1.8008 0.93359-2.7383 0.53516-0.93359-0.39453-1.5352-1.3242-1.5156-2.3398 0.019531-1.3359 1.0938-2.4141 2.4297-2.4414zm57.141 0c1.0117 0 1.9219 0.61328 2.3047 1.5508s0.16016 2.0117-0.5625 2.7188-1.8008 0.91016-2.7305 0.50781c-0.92969-0.40234-1.5234-1.3242-1.5039-2.3359 0.023437-1.3594 1.1328-2.4453 2.4922-2.4414zm-33.809 25.922c0.003906 0.70703-0.42188 1.3477-1.0742 1.6211-0.65234 0.27734-1.4062 0.12891-1.9062-0.36719-0.50391-0.49609-0.66016-1.25-0.39062-1.9062 0.26562-0.65234 0.90234-1.0859 1.6094-1.0898 0.46484 0 0.91016 0.17969 1.2422 0.50781 0.32812 0.32422 0.51562 0.76953 0.51953 1.2344z"/>
</svg>
