<?xml version="1.0" encoding="UTF-8"?>
<svg fill="#37373B" width="100pt" height="100pt" version="1.1" viewBox="0 0 100 100" xmlns="http://www.w3.org/2000/svg">
 <path d="m89.293 81.297c1.0742-1.7891 1.4961-3.875 1.1875-5.9688-0.72656-4.9375-5.3438-8.3594-10.273-7.6328l-11.008 1.625c1.125-1.1055 2.0391-2.3672 2.7305-3.8008 6.7227-13.867-9.7188-37.809-10.422-38.82-0.33984-0.49219-0.98828-0.66016-1.5273-0.39453-0.53516 0.26562-0.79688 0.88281-0.61328 1.4531 0.5625 1.7422 0.9375 3.4102 1.1641 4.9844-3.2891-13.715-12.297-26.512-12.812-27.234-0.34375-0.48437-0.98438-0.64453-1.5195-0.38281-0.53125 0.26172-0.79297 0.87109-0.61719 1.4375 0.035157 0.10938 3.3398 11.094-3.3594 18.473-2.0703 2.2812-3.4844 4.7812-4.4492 7.2148-0.11719-0.25391-0.32031-0.46484-0.58984-0.58984-0.54297-0.25-1.1875-0.066406-1.5156 0.43359-10.156 15.457-12.02 28.746-5.1172 36.465 0.26953 0.30078 0.55078 0.57812 0.84375 0.85156l-11.602-1.7109c-4.9375-0.73438-9.5469 2.6953-10.273 7.6328-0.30859 2.0938 0.11328 4.1836 1.1914 5.9727-1.0391 1.7305-1.5078 3.8164-1.1914 5.9648 0.66406 4.4922 4.5391 7.7305 8.9492 7.7305 0.4375 0 0.87891-0.03125 1.3242-0.097656l30.207-4.4531 30.207 4.4531c0.44531 0.066406 0.88672 0.097656 1.3242 0.097656 4.4102 0 8.2852-3.2383 8.9492-7.7305 0.30859-2.0938-0.11328-4.1797-1.1875-5.9727zm-26.168-47.359c4.4258 7.8555 10.863 21.816 6.6367 30.531-1.5781 3.2539-4.582 5.5234-8.9688 6.7852 1.5195-0.96875 2.6875-2.2188 3.4453-3.7812 2.7734-5.7227-0.48828-14.012-3.3359-19.441 0.070312-0.078125 0.14062-0.15234 0.19141-0.25 0.13672-0.28125 2.8281-5.6992 2.0312-13.844zm-16.574 9.1289c2.2891-2.5195 3.0312-5.5234 3.1562-8.0625 2.8906 5.1328 6.8398 13.738 5.4258 20.496-0.125 0.59375 0.21094 1.1836 0.78125 1.3867 0.57031 0.20312 1.1992-0.050781 1.4766-0.58984 0.082031-0.16016 1.418-2.8516 1.4219-7.0195 2.6172 5.0039 5.5547 12.395 3.2461 17.148-1.3711 2.8281-4.6055 4.418-9.6055 4.7227-0.023437 0-0.046875 0.003906-0.066406 0.007812-0.089844 0.011719-9.3359 1.0352-13.191-3.2695-2.9453-3.293-2.6953-8.9258 0.53516-15.594 0.14062 1.1875 0.53906 2.2617 1.3945 2.9023 0.38281 0.28906 0.90234 0.32031 1.3203 0.082032 0.41797-0.23828 0.65625-0.70312 0.60156-1.1797 0-0.066406-0.64844-6.457 3.5039-11.031zm-12.203-4.0938c-0.15234 2.6992 0.21875 5.4727 2.0117 6.8164 0.38672 0.28906 0.90234 0.32031 1.3203 0.082032 0.41797-0.23828 0.65625-0.69922 0.60156-1.1797-0.011719-0.10547-1.0469-10.574 5.7266-18.035 4.3125-4.75 5.0352-10.633 4.8203-14.934 4.3516 7.2969 11.621 21.52 10.316 33.195-0.82031-1.3633-1.4219-2.2383-1.5234-2.3828-0.34375-0.49219-0.99219-0.65625-1.5273-0.39453-0.10547 0.054687-0.20312 0.12109-0.28906 0.19922-2.5469-7.0156-6.6133-12.793-6.8867-13.18-0.34375-0.48047-0.98438-0.64453-1.5195-0.38281-0.53125 0.26172-0.79297 0.87109-0.61719 1.4375 0.019531 0.066406 2.0312 6.7539-2.0234 11.219-1.1758 1.2969-2.0234 2.6992-2.6367 4.0859-0.007813-0.003906-0.015625-0.007812-0.023438-0.011719-0.53906-0.25391-1.1875-0.066406-1.5117 0.43359-6.5273 9.9297-7.6914 18.512-3.1914 23.543 0.55859 0.62109 1.1953 1.1484 1.8828 1.6055-2.6484-0.83984-5.1406-2.1445-6.9336-4.1523-5.3125-5.9336-4.5352-15.945 2.0039-27.965zm-22.441 36.711c0.53516-3.6211 3.9102-6.1367 7.5352-5.5977l16.914 2.4922c1.0352 0.44922 2.1094 0.8125 3.1914 1.1133l-22.395 3.3008c-1.8477 0.27344-3.4805 1.0898-4.7656 2.2578-0.48047-1.1133-0.66016-2.3359-0.48047-3.5664zm7.5352 16.832c-3.6211 0.53516-7-1.9766-7.5352-5.5977-0.26172-1.7617 0.20703-3.4648 1.168-4.8164 0.0625-0.070312 0.12109-0.14062 0.16406-0.22266 1.0117-1.3047 2.5078-2.2383 4.2656-2.4961l30.238-4.4609c0.73828 0.03125 1.4414 0.046875 2.0859 0.046875 2.3281 0 3.9688-0.17188 4.2852-0.20703 4.1172-0.25391 7.5938-1.0312 10.422-2.3164l16.02-2.3633c3.6133-0.53906 7 1.9766 7.5352 5.5977 0.25391 1.7188-0.17188 3.4258-1.1836 4.8359-0.050781 0.0625-0.10547 0.11719-0.14062 0.1875-1.0547 1.3633-2.5625 2.2578-4.2734 2.5117zm68.652-5.6016c-0.53516 3.6211-3.918 6.1328-7.5352 5.5977l-22.285-3.2852 24.574-3.6211c1.8047-0.26562 3.4492-1.0508 4.7695-2.2578 0.47656 1.1172 0.65625 2.3359 0.47656 3.5664z"/>
</svg>
