<?xml version="1.0" encoding="UTF-8"?>
<svg fill="#37373B" width="100pt" height="100pt" version="1.1" viewBox="0 0 100 100" xmlns="http://www.w3.org/2000/svg">
 <path d="m87.719 61.641c-1.0742 2.7891-3.0508 4.5195-5.7852 5.0117v3.5117c0 0.92969-0.75 1.6797-1.6797 1.6797-0.92969 0-1.6797-0.75391-1.6797-1.6797v-3.5117c-4.293-0.77344-6.7227-4.5977-6.7227-10.77 0-5.7109 3.7461-12.605 8.4023-12.605 3.5977 0 6.6523 4.1211 7.8555 8.6328 0.35156 1.3203 0.54688 2.6758 0.54688 3.9727-0.003906 2.2422-0.32812 4.168-0.9375 5.7578zm-2.4258-5.7578c0-4.4648-2.9609-9.2422-5.0391-9.2422-2.082 0-5.043 4.7773-5.043 9.2422 0 5.2461 1.8242 6.8516 3.3594 7.3438v-4.8242c0-0.92969 0.75391-1.6797 1.6797-1.6797 0.92969 0 1.6797 0.75391 1.6797 1.6797v4.8242c1.5352-0.49219 3.3633-2.0977 3.3633-7.3438zm-73.945 8.1445 2.9961-3.9453h-1.3164c-0.65625 0-1.2539-0.38281-1.5273-0.97656-0.10156-0.22266-0.15234-0.46094-0.15234-0.69922v-0.003906c0-0.39453 0.13672-0.78516 0.40625-1.0977l4.8242-5.6289-0.1875 0.003907c-0.64453 0-1.2344-0.37109-1.5156-0.95313-0.27734-0.58203-0.19922-1.2734 0.20312-1.7773l6.7227-8.4023c0.63672-0.79688 1.9883-0.79688 2.625 0l6.7227 8.4023c0.40234 0.50391 0.48437 1.1953 0.20312 1.7773-0.28125 0.58203-0.86719 0.95313-1.5156 0.95313h-0.1875l4.8242 5.6289c0.42578 0.49609 0.52344 1.1992 0.25 1.7969-0.27344 0.59766-0.87109 0.97656-1.5273 0.97656h-1.0898l4.1328 5.7383c0.36719 0.51172 0.41797 1.1875 0.13281 1.75-0.28906 0.5625-0.86328 0.91406-1.4961 0.91406h-23.527c-0.64062 0-1.2227-0.35938-1.5078-0.93359-0.28125-0.57031-0.21875-1.2578 0.16797-1.7617zm5.3359-7.3047h1.0508c0.64062 0 1.2227 0.36328 1.5078 0.93359 0.28125 0.57031 0.21875 1.2539-0.16797 1.7617l-4.3359 5.7031h16.859l-4.1328-5.7383c-0.36719-0.51172-0.42188-1.1875-0.13281-1.75 0.28906-0.5625 0.86328-0.91406 1.4961-0.91406h0.71484l-4.8242-5.6289c-0.42578-0.49609-0.52344-1.1992-0.25-1.7969 0.27344-0.59766 0.87109-0.98047 1.5273-0.98047h0.34375l-3.2266-4.0312-3.2266 4.0312h0.34375c0.65625 0 1.2539 0.38281 1.5273 0.98047 0.27344 0.59766 0.17578 1.2969-0.25 1.7969zm73.414 20.988c-0.23438-0.38672-0.60547-0.65625-1.0391-0.77344-0.85547-0.21094-1.7344 0.29688-1.9961 1.125-0.011719 0.035156-0.027344 0.066406-0.035156 0.10156-0.003906 0.015626-0.003906 0.03125-0.007813 0.046876-0.023437 0.10156-0.039062 0.20312-0.042969 0.30859-0.003906 0.14844 0.015626 0.29688 0.050782 0.44141 0.039062 0.16797 0.097656 0.32812 0.18359 0.48047 0.23437 0.36719 0.58984 0.63672 1.0234 0.75781h0.015625c0.13281 0.03125 0.26562 0.050781 0.39844 0.050781h0.003906c0.77344 0 1.4453-0.51953 1.6289-1.2773 0.10156-0.4375 0.054688-0.875-0.18359-1.2617zm-25.93 10.941c0 0.92578-0.73828 1.6797-1.6641 1.6797h-51.156c-0.92969 0-1.6797-0.75391-1.6797-1.6797 0-0.92969 0.75391-1.6797 1.6797-1.6797h30.938c-1.2969-0.82422-2.6172-1.9297-3.6641-3.3945-0.007813-0.011719-0.015625-0.019531-0.023438-0.03125-0.27344-0.38281-0.51953-0.78125-0.74609-1.2031-0.019531-0.035156-0.035156-0.070312-0.054687-0.10547-0.078125-0.15625-0.15625-0.3125-0.23047-0.47266-3.2695-3.0859-12.652-3.3594-16.055-3.1953-0.92188 0.015626-1.7148-0.67187-1.7578-1.5977-0.042968-0.92578 0.67188-1.7148 1.5977-1.7578 1.1484-0.054688 9.5117-0.35938 15.215 2.0547-0.003906-0.125-0.011718-0.25-0.007812-0.37891-0.023438-1.4102 0.22656-2.625 0.64062-3.6719 0.027343-0.066406 0.054687-0.12891 0.082031-0.19141 0.066406-0.15625 0.13672-0.3125 0.21094-0.46094 0.046874-0.09375 0.089843-0.18359 0.14062-0.27344 0.078126-0.14453 0.16016-0.28125 0.24219-0.41797 0.042969-0.070312 0.082031-0.14062 0.125-0.20703 0.12891-0.19922 0.26562-0.39062 0.41016-0.57422 0.007813-0.011719 0.019532-0.023438 0.027344-0.035156 0.78516-1.0117 1.7109-1.7734 2.5703-2.3359 0.25-0.16406 0.5-0.31641 0.74609-0.46875 0.46484-0.28125 0.92578-0.54297 1.3789-0.80078 0.20703-0.11719 0.41016-0.23047 0.61328-0.34766 0.31641-0.17188 0.62891-0.34375 0.92188-0.50781 0.83594-0.48047 1.5391-0.92969 2.0977-1.4141 0.12891-0.11328 0.23828-0.23047 0.35156-0.34766 0.082031-0.089844 0.16797-0.17578 0.24219-0.26563 0.12891-0.15625 0.25391-0.3125 0.35547-0.48047 0.027344-0.039063 0.050781-0.082032 0.074218-0.125 0.035157-0.0625 0.066407-0.125 0.097657-0.1875s0.0625-0.12109 0.085937-0.1875c0.03125-0.074219 0.058594-0.15234 0.085938-0.22656 0.015625-0.046875 0.03125-0.089843 0.046875-0.14062 0.054687-0.17969 0.09375-0.37109 0.12891-0.57031 0.015625-0.085938 0.027344-0.17969 0.035156-0.27344 0.023438-0.19922 0.042969-0.39844 0.042969-0.61719 0-0.65234-0.42188-1.1406-1.1562-1.5469-0.13281-0.074219-0.27734-0.14062-0.42969-0.21094-0.03125-0.015625-0.074218-0.03125-0.10547-0.046875-0.066406-0.027343-0.12891-0.054687-0.19531-0.085937-0.91016-0.35938-2.1016-0.65625-3.4688-0.97266-0.92969-0.21484-1.8359-0.42578-2.6719-0.69141h-0.003906c-0.003906 0-0.003906 0-0.003906-0.003906-0.34766-0.11328-0.68359-0.23047-1.0078-0.36328-0.62891-0.25391-1.2031-0.56641-1.6992-1.0156-0.019531-0.019531-0.039062-0.035157-0.0625-0.050781-0.035156-0.035157-0.070312-0.070313-0.10547-0.10547-0.09375-0.09375-0.17969-0.1875-0.26562-0.28906-0.019531-0.023437-0.039063-0.046875-0.058594-0.074218-0.074219-0.097657-0.14844-0.20313-0.21875-0.30859-0.027344-0.042969-0.0625-0.078125-0.089844-0.125-0.027343-0.050782-0.046875-0.10156-0.074219-0.15234-0.085937-0.16016-0.16406-0.32031-0.23437-0.47656-0.054688-0.13281-0.097657-0.26172-0.14063-0.39453-0.019531-0.050781-0.039062-0.10156-0.054687-0.15234-0.34375-1.1523-0.14453-2.1445 0.32812-2.9922 0.53516-1.0547 1.4258-1.7695 2.2461-2.3711 0.10156-0.074219 0.19922-0.14453 0.29688-0.21875 0.125-0.085937 0.25391-0.18359 0.375-0.27344 0.042969-0.03125 0.089843-0.066406 0.12891-0.097656 0.082031-0.054688 0.15234-0.10547 0.23047-0.15625 0.33594-0.23438 0.67578-0.48047 0.99219-0.72656 0.35938-0.28906 0.64453-0.55078 0.84766-0.77344 0.046874-0.050782 0.085937-0.097657 0.125-0.14453 0.003906-0.003906 0.007812-0.007812 0.007812-0.011718 0.14062-0.1875 0.23438-0.37109 0.26172-0.55078 0.003906-0.011718 0.003906-0.023437 0.003906-0.035156v-0.085938c0-0.003906 0.003906-0.003906 0.003906-0.007812-0.007812-0.29297-0.17969-0.66406-0.54688-1.0938-0.34375-0.37891-0.82031-0.80469-1.4102-1.2383-0.70312-0.5-1.6172-1.0352-2.7656-1.5938-0.023437-0.011719-0.046875-0.023438-0.070313-0.03125-0.42187-0.20312-0.86328-0.40625-1.3242-0.60156-0.03125-0.011718-0.0625-0.027344-0.09375-0.039062-0.41016-0.17578-0.83594-0.34766-1.2734-0.51562-0.085937-0.035157-0.17188-0.066407-0.26172-0.10156-0.97266-0.36719-2.0078-0.72266-3.1016-1.0625l-0.11719-0.046875-0.011719-0.003906c-0.097657-0.03125-0.1875-0.074219-0.27734-0.12109-0.015625-0.007812-0.027344-0.015625-0.039063-0.023437-0.050781-0.027344-0.10156-0.054688-0.14453-0.089844-0.078125-0.046875-0.15234-0.09375-0.22266-0.15234-3.332-2.6641-7.3086-3.2617-10.715-3.0977v0.10547c0 0.92969-0.75391 1.6797-1.6797 1.6797-0.82812 0-1.5117-0.59766-1.6523-1.3867-2.5938 0.48828-4.3672 1.2305-4.4102 1.25-0.21484 0.09375-0.44141 0.13672-0.66016 0.13672-0.65234 0-1.2734-0.38281-1.543-1.0195-0.36719-0.85547 0.03125-1.8398 0.88281-2.207 0.21484-0.09375 2.4805-1.0391 5.7031-1.5859v-0.38672c-4.293-0.76953-6.7227-4.5977-6.7227-10.77 0-5.707 3.75-12.605 8.4023-12.605 4.6562 0 8.4023 6.8945 8.4023 12.605 0 6.1758-2.4297 10-6.7227 10.77v0.027343c3.9023-0.16406 8.4727 0.55078 12.477 3.5938 0.56641 0.007813 1.2109 0.03125 1.9062 0.070313 0.13281-0.066406 0.26953-0.11719 0.41797-0.14453 5.3867-1.0547 10.531-1.8477 15.449-2.3828v-1.1641c-4.293-0.76953-6.7227-4.5977-6.7227-10.77 0-5.707 3.7461-12.605 8.4023-12.605 4.6523 0 8.4023 6.8945 8.4023 12.605 0 6.1758-2.4297 10-6.7227 10.77v0.83984c4.6445-0.39844 9.0742-0.54688 13.312-0.46094l1.4492-1.9062h-1.3164c-0.65625 0-1.2539-0.38281-1.5273-0.98047s-0.17578-1.2969 0.25-1.7969l4.8242-5.6289h-0.1875c-0.62109 0-1.1914-0.33984-1.4805-0.88672-0.29297-0.54688-0.25781-1.2109 0.085937-1.7266l6.7227-10.082c0.625-0.93359 2.1719-0.93359 2.7969 0l6.7227 10.082c0.34375 0.51563 0.375 1.1797 0.085938 1.7266-0.29297 0.54688-0.85938 0.88672-1.4805 0.88672h-0.1875l4.8242 5.6289c0.42969 0.49609 0.52344 1.1992 0.25 1.7969-0.27344 0.59766-0.87109 0.98047-1.5273 0.98047h-1.0898l4.1328 5.7383c0.03125 0.042969 0.058594 0.089844 0.085938 0.13672 0.007812 0.015625 0.019531 0.03125 0.027344 0.046875 0.046875 0.085937 0.082031 0.17188 0.11328 0.26172 0.007813 0.023437 0.011719 0.046874 0.019531 0.070312 0.019532 0.070312 0.035156 0.14453 0.046875 0.21875 0.003907 0.027344 0.007813 0.054688 0.011719 0.078125 0.007812 0.09375 0.011719 0.1875 0.007812 0.28516 0 0.019531-0.007812 0.039063-0.007812 0.058594-0.007812 0.082031-0.023438 0.16406-0.046875 0.24219-0.003906 0.015626-0.003906 0.03125-0.007813 0.046876-0.003906 0.011718-0.011718 0.023437-0.015624 0.035156-0.027344 0.089844-0.0625 0.17969-0.10547 0.26562 0 0.003906-0.003907 0.003906-0.003907 0.003906-0.011718 0.019531-0.023437 0.035156-0.035156 0.054687-0.039062 0.066407-0.078125 0.13281-0.125 0.19141-0.019531 0.027343-0.039062 0.050781-0.0625 0.078125-0.046875 0.054687-0.10156 0.10938-0.15625 0.15625l-0.046875 0.046875c-0.070312 0.058593-0.14453 0.10938-0.22656 0.15234-0.027344 0.015626-0.054688 0.03125-0.085938 0.042969-0.058593 0.03125-0.12109 0.058594-0.18359 0.078125-0.027344 0.011719-0.058594 0.023438-0.089844 0.03125-0.085938 0.027344-0.17578 0.046875-0.26562 0.058594-0.023438 0.003906-0.050781 0.003906-0.074219 0.003906-0.046875 0.003906-0.09375 0.011719-0.14453 0.011719h-23.527c-0.64062 0-1.2227-0.35938-1.5039-0.93359-0.28516-0.57031-0.21875-1.2578 0.16797-1.7617l0.35156-0.46484c-3.5078 0.007812-7.1523 0.17578-10.941 0.51562-0.26953 0.57031-0.84375 0.96875-1.5156 0.96875-0.55469 0-1.0391-0.26953-1.3477-0.68359-1.9062 0.20703-3.8438 0.44922-5.8242 0.73828 0.29688 0.082031 0.58984 0.17188 0.87891 0.26172 1.9102 0.57422 3.6172 1.3242 4.8867 2.4805 0.45312 0.39844 0.82812 0.83203 1.1172 1.3086 0.023438 0.035157 0.046875 0.0625 0.070313 0.097657 0.03125 0.054687 0.054687 0.11328 0.085937 0.17188 0.078125 0.14453 0.14844 0.28906 0.21484 0.4375 0.027344 0.0625 0.054688 0.12109 0.078125 0.18359 0.085937 0.22266 0.16406 0.44141 0.22656 0.66797 0 0.003906 0 0.007813 0.003906 0.007813 0.066406 0.23828 0.10547 0.47266 0.14062 0.70312 0.007812 0.039062 0.011719 0.074218 0.015625 0.11328 0.12891 1.0703-0.054688 2.0234-0.28516 2.8164-0.10547 0.39453-0.21484 0.73438-0.30859 1.0156-0.019532 0.054688-0.039063 0.10547-0.054688 0.16016-0.0625 0.21484-0.11328 0.41406-0.12109 0.53516 0.019532 0.019531 0.050782 0.046875 0.11328 0.078125 0.21094 0.14453 0.68359 0.35156 1.4453 0.55859 0.11328 0.03125 0.21875 0.058593 0.34766 0.089843 0.003907 0 0.003907 0 0.007813 0.003907 0.12891 0.03125 0.26562 0.0625 0.41406 0.09375 0.050781 0.011718 0.10156 0.023437 0.15234 0.03125 0.16406 0.035156 0.33984 0.066406 0.51953 0.097656 0.38672 0.070312 0.75781 0.14453 1.1211 0.21875 0.13281 0.027344 0.26953 0.054687 0.39844 0.082031 0.22266 0.046875 0.4375 0.09375 0.64844 0.14062 0.28125 0.0625 0.55859 0.125 0.82812 0.1875 0.015625 0.003906 0.027344 0.007812 0.039063 0.011719 0.36328 0.085937 0.71484 0.17578 1.0547 0.26562 0.15625 0.039062 0.30078 0.085937 0.45312 0.125 0.18359 0.050781 0.36719 0.10156 0.54688 0.15625 0.16406 0.050781 0.32031 0.097656 0.47656 0.14844 0.15234 0.046875 0.30469 0.097657 0.44922 0.14453 0.16797 0.054688 0.33203 0.11328 0.49219 0.17188 0.11719 0.042968 0.23438 0.085937 0.34766 0.12891 0.17969 0.066406 0.35156 0.13281 0.52344 0.20312 0.074219 0.03125 0.14844 0.0625 0.21875 0.09375 0.19531 0.082031 0.39453 0.16406 0.57812 0.25 0.003906 0.003906 0.003906 0.003906 0.007812 0.003906 0.73828 0.33984 1.3945 0.69922 1.9609 1.0859 0.082031 0.054688 0.16016 0.10938 0.23828 0.16406 0.085937 0.0625 0.17188 0.12891 0.25781 0.19531 0.058593 0.046874 0.11719 0.09375 0.17578 0.14062 0.79688 0.65625 1.3906 1.375 1.7891 2.1758 0.050781 0.10156 0.085938 0.20703 0.12891 0.3125 0.03125 0.074218 0.0625 0.14844 0.09375 0.22266 0.035156 0.09375 0.066406 0.1875 0.097656 0.28125 0.054687 0.17578 0.10547 0.35547 0.14062 0.53516 0.007812 0.042969 0.015625 0.085938 0.023437 0.125 0.039063 0.21875 0.070313 0.44141 0.085938 0.66797v0.011719c0.007812 0.11328 0.011718 0.22656 0.011718 0.34375 0 0.097656-0.007812 0.19922-0.015624 0.29688-0.003907 0.058593-0.003907 0.11328-0.007813 0.17188-0.019531 0.23438-0.046875 0.47266-0.089844 0.71094-0.003906 0.019531-0.007812 0.035157-0.007812 0.054688-0.046875 0.24219-0.10547 0.49219-0.17969 0.74219-0.011719 0.039063-0.023437 0.082032-0.035156 0.12109-0.070313 0.23047-0.15234 0.46094-0.24609 0.69922-0.03125 0.078125-0.066406 0.16016-0.10156 0.24219-0.066407 0.15234-0.13672 0.30859-0.21094 0.46094-0.035156 0.078125-0.066406 0.15625-0.10547 0.23438l-0.47266 0.91797c-0.97656 1.8828-1.8164 3.5039-1.3945 4.8164 0.28516 0.88281 1.1719 1.7969 2.6289 2.7266 0.11328 0.070313 0.23047 0.14453 0.35156 0.21484 0.10938 0.066406 0.22266 0.13281 0.33984 0.19922 0.12109 0.070312 0.23828 0.13672 0.36328 0.20703 0.25391 0.14062 0.51953 0.28125 0.80078 0.42188 0.12891 0.066406 0.25391 0.12891 0.38281 0.19141 6.1367 3 9.4023 3.3516 12.562 3.6836 0.91797 0.10156 1.582 0.91016 1.5117 1.8242 0.042969 0.011718 0.085938 0.019531 0.12891 0.03125-0.042969-0.003906-0.085938-0.007813-0.12891-0.011719v0.007813c-0.074219 0.67578-0.55078 1.2188-1.168 1.418-0.21484 0.070313-0.44141 0.097656-0.67969 0.078125-3.6133-0.35156-7.6953-0.99219-14.117-4.2188-0.22656-0.10938-0.44141-0.21875-0.65234-0.33203-1.9453-1.0195-3.3906-2.1172-4.3516-3.3086-0.054687-0.070312-0.11328-0.14062-0.16406-0.21094-0.050781-0.066407-0.097657-0.13672-0.14453-0.20312-0.054688-0.078125-0.10938-0.16016-0.16016-0.23828-0.042969-0.066406-0.085937-0.13281-0.125-0.19922-0.050781-0.082032-0.09375-0.16797-0.14062-0.25-0.066406-0.125-0.12891-0.25391-0.1875-0.38281-0.03125-0.070312-0.066406-0.14453-0.09375-0.21484-0.035156-0.089844-0.070312-0.18359-0.10156-0.27734-0.019532-0.054688-0.039063-0.10938-0.054688-0.16406-0.035156-0.11719-0.070312-0.23828-0.097656-0.35547-0.011719-0.050781-0.027344-0.10547-0.035156-0.15625-0.023438-0.10937-0.042969-0.21484-0.058594-0.32422-0.011719-0.066406-0.019531-0.13672-0.027344-0.20312-0.011718-0.097657-0.019531-0.19141-0.027344-0.28906-0.003906-0.078125-0.007812-0.15625-0.011718-0.23828-0.003906-0.0625-0.007813-0.12109-0.007813-0.18359 0-0.023437 0.003907-0.042969 0.003907-0.066406 0.007812-0.23047 0.019531-0.46094 0.046874-0.67969 0-0.011719 0.003907-0.023438 0.003907-0.035157 0.023437-0.19922 0.058593-0.39453 0.097656-0.58984 0.011719-0.0625 0.023437-0.12109 0.035156-0.18359 0.003907-0.007813 0.003907-0.015625 0.007813-0.027344 0.0625-0.25781 0.13672-0.51562 0.22266-0.76953 0.34375-1.0742 0.85547-2.0703 1.3633-3.0469 0.10156-0.19531 0.21094-0.40234 0.31641-0.60547 0.085937-0.16406 0.17187-0.32031 0.25391-0.48828 0.03125-0.0625 0.054687-0.125 0.085937-0.1875 0.042969-0.089844 0.085938-0.17969 0.12109-0.26562 0.035156-0.078125 0.066406-0.15625 0.097656-0.23438 0.058594-0.14844 0.10547-0.28906 0.14453-0.42188 0.011719-0.042969 0.027344-0.085938 0.035157-0.125 0.046875-0.16406 0.078125-0.3125 0.10156-0.45312 0.003907-0.019532 0.007813-0.039063 0.011719-0.058594 0.023438-0.17188 0.035156-0.32422 0.039062-0.46484v-0.003906-0.003906c-0.011718-0.33203-0.066406-0.64453-0.20703-0.95312-0.10156-0.22656-0.25-0.44922-0.46484-0.68359-0.019532-0.019531-0.039063-0.042969-0.0625-0.0625-0.042969-0.042969-0.085938-0.085937-0.13281-0.13281-0.29297-0.27344-0.67969-0.5625-1.1914-0.875-1.4531-0.85156-3.793-1.625-6.8047-2.2656-0.10156-0.019532-0.20312-0.042969-0.30469-0.0625-0.29297-0.058594-0.59766-0.11719-0.90234-0.17578-0.11328-0.019531-0.22266-0.046875-0.33984-0.066406-0.47266-0.085938-0.89453-0.17578-1.2852-0.26953-0.046875-0.011719-0.089844-0.019531-0.13281-0.03125-0.11719-0.03125-0.23047-0.058594-0.34375-0.089844-0.34766-0.09375-0.66406-0.19531-0.95703-0.30078-0.035156-0.015625-0.078125-0.027344-0.11328-0.039063-0.082031-0.03125-0.16016-0.0625-0.23828-0.09375-0.066406-0.027343-0.13281-0.054687-0.19922-0.085937-0.054687-0.023438-0.10547-0.046875-0.15625-0.070313-0.10156-0.046875-0.19922-0.097656-0.29297-0.14453-0.019531-0.011719-0.039062-0.019531-0.054687-0.027344-0.10938-0.058594-0.21484-0.12109-0.31641-0.18359-0.011718-0.007812-0.027343-0.015624-0.039062-0.023437-0.26953-0.15625-0.51172-0.35938-0.73047-0.59375-0.34375-0.36719-0.60547-0.8125-0.76172-1.2773-0.03125-0.09375-0.0625-0.19141-0.082031-0.28516-0.007812-0.023437-0.007812-0.046875-0.015625-0.070313-0.027344-0.14844-0.046875-0.29687-0.054687-0.44141v-0.023437c0-0.054688-0.007813-0.10938-0.007813-0.16406 0.003906-0.035156 0.007813-0.066406 0.011719-0.10547 0.042969-0.51172 0.12891-0.95313 0.23438-1.3594 0.085938-0.32422 0.17969-0.625 0.27344-0.90625 0.0625-0.21094 0.125-0.40625 0.17578-0.59766 0.070312-0.25 0.11328-0.48828 0.12109-0.72266 0-0.019531 0.003907-0.035156 0.003907-0.054688 0-0.039062 0.007812-0.078124 0.003906-0.11719 0-0.03125-0.003906-0.070313-0.003906-0.10156-0.003907-0.046874-0.003907-0.09375-0.007813-0.13672-0.007812-0.10156-0.023437-0.20703-0.050781-0.32031v-0.003906c-0.050781-0.22266-0.14453-0.46875-0.30469-0.76172-0.085938-0.20703-0.29297-0.43359-0.58594-0.66406-0.015625-0.011719-0.035156-0.027344-0.050781-0.039063-0.050781-0.035156-0.097657-0.074219-0.15234-0.11328-0.73438-0.51562-1.8984-1.0469-3.2539-1.4961-0.76953-0.25391-1.5977-0.48438-2.4414-0.66406 0.011719 0.007812 0.023438 0.015625 0.035157 0.023437 0.98828 0.67969 1.7383 1.3789 2.2852 2.1211 0.66797 0.90625 1.0352 1.8867 1.1094 2.9961 0 0.039062-0.003906 0.082031-0.003906 0.12109-0.003906 0.10938-0.007813 0.21484-0.019532 0.32422-0.003906 0.058594-0.007812 0.11328-0.011718 0.17578-0.003906 0.027344-0.015625 0.050782-0.019532 0.074219-0.21094 0.98828-0.66016 1.7578-1.2109 2.3906-0.35547 0.40625-0.75 0.75781-1.1484 1.0664-0.29297 0.22656-0.58203 0.4375-0.85938 0.63281-0.11328 0.078125-0.21094 0.15625-0.31641 0.23828-0.097656 0.070313-0.19922 0.14453-0.28906 0.21875-0.14062 0.089844-0.26562 0.17969-0.38672 0.26562-0.3125 0.21875-0.57812 0.42188-0.80078 0.60938-0.42578 0.36328-0.69141 0.66016-0.82812 0.85938-0.097657 0.14453-0.13672 0.24609-0.11719 0.28125v0.050781c0.003907 0.03125 0.011719 0.066407 0.019531 0.10938 0.007813 0.0625 0.03125 0.12109 0.054688 0.18359 0.03125 0.089844 0.082031 0.19531 0.16406 0.32812v0.007813 0.042969c0.011719 0.027343 0.082032 0.082031 0.17969 0.14062 0.21875 0.13672 0.63281 0.33984 1.2227 0.55078 0.48438 0.17188 1.082 0.34375 1.7656 0.48828 0.070313 0.015625 0.13672 0.03125 0.21094 0.046875 0.19531 0.050781 0.39453 0.097656 0.58984 0.14453 0.12891 0.03125 0.25 0.058594 0.38281 0.09375 0.41406 0.097657 0.83984 0.19922 1.2734 0.30859 0.039063 0.011719 0.082032 0.019531 0.125 0.03125 0.12109 0.03125 0.24609 0.066406 0.37109 0.097656 0.17969 0.050781 0.36328 0.10156 0.54688 0.15625 0.011719 0.003907 0.019531 0.007813 0.03125 0.007813 0.65625 0.19922 1.3125 0.4375 1.9375 0.73438 0.015625 0.007812 0.03125 0.015625 0.046875 0.023437 0.19141 0.09375 0.38281 0.19141 0.5625 0.29688 0.015625 0.007813 0.027344 0.015625 0.039063 0.023438 0.11719 0.066406 0.23438 0.12891 0.34766 0.19922 0.22656 0.14062 0.44922 0.31641 0.67188 0.51172 0.03125 0.027344 0.0625 0.050782 0.09375 0.082032 0.066406 0.0625 0.12891 0.12891 0.19531 0.19141 0.64453 0.66016 1.1797 1.5469 1.3438 2.6328 0.035157 0.24219 0.054688 0.49219 0.050782 0.75391 0 0.29688-0.015625 0.58203-0.039063 0.85938-0.007812 0.074218-0.023437 0.14844-0.03125 0.22266-0.023437 0.18359-0.046875 0.36719-0.078125 0.54688-0.14844 0.75781-0.40234 1.4727-0.76172 2.1367-0.37109 0.6875-0.85547 1.3164-1.4414 1.8633-0.42578 0.40625-0.87109 0.75391-1.332 1.0781-0.027344 0.019531-0.050781 0.039062-0.078125 0.054687-0.21094 0.14844-0.42188 0.28906-0.63672 0.42188-0.015625 0.011719-0.03125 0.019532-0.046875 0.027344-0.44141 0.27734-0.88672 0.53906-1.3359 0.78516-0.15234 0.085938-0.30469 0.16797-0.45703 0.25-0.16797 0.10156-0.35547 0.1875-0.51953 0.28516l-0.11719 0.066407c-0.042969 0.023437-0.085938 0.046875-0.125 0.074219-0.65625 0.38281-1.2656 0.73437-1.8125 1.1016-0.070313 0.046875-0.13672 0.09375-0.20312 0.14062-0.042969 0.03125-0.089844 0.0625-0.13281 0.09375-1.0039 0.71875-1.7617 1.5117-2.1953 2.6484-0.25781 0.67969-0.40625 1.4766-0.42188 2.4648 0.003906 0.25781 0.015625 0.50781 0.035156 0.75 0.007813 0.09375 0.015625 0.19141 0.027344 0.28125 0.085937 0.80859 0.26562 1.5547 0.55078 2.2461 0 0.003906 0.003906 0.007812 0.003906 0.011719 0.67969 1.6523 1.9414 2.9922 3.8711 4.1523 0.95312 0.55469 1.9922 0.99219 3.0156 1.3359 0.007813 0.003906 0.015625 0.003906 0.023437 0.007812 0.19531 0.066407 0.39063 0.12891 0.58594 0.1875 0.09375 0.027344 0.1875 0.054688 0.28125 0.082032 0.11328 0.03125 0.22656 0.066406 0.33984 0.097656 0.10547 0.027344 0.21094 0.058594 0.3125 0.085938 0.13672 0.035156 0.27344 0.070312 0.40625 0.10156 0.0625 0.015625 0.12109 0.03125 0.18359 0.046875 1.2891 0.30078 2.3984 0.46094 3.0547 0.53516 1.4297 0.16797 2.3359 0.16797 2.4375 0.16797h0.64062 0.10156 6.7227c0.88672 0.003906 1.625 0.75781 1.625 1.6836zm-17.527-66.383c0 5.2461 1.8242 6.8516 3.3594 7.3438v-3.1445c0-0.92969 0.75391-1.6797 1.6797-1.6797 0.92969 0 1.6797 0.75391 1.6797 1.6797v3.1445c1.5352-0.49219 3.3594-2.0977 3.3594-7.3438 0-4.4648-2.9609-9.2422-5.0391-9.2422-2.082 0-5.0391 4.7812-5.0391 9.2422zm22.891 12.945-1.0195 1.3438h16.859l-0.77344-1.0742-3.3594-4.6641c-0.36719-0.51172-0.42188-1.1875-0.13281-1.7461 0.28516-0.5625 0.86328-0.91406 1.4961-0.91406h0.71484l-4.8242-5.6289c-0.42969-0.49609-0.52344-1.1992-0.25-1.7969 0.27344-0.59766 0.87109-0.97656 1.5273-0.97656h0.70312l-3.582-5.3711-3.582 5.3711h0.70312c0.65625 0 1.2539 0.38281 1.5273 0.97656 0.27344 0.59766 0.17578 1.2969-0.25 1.7969l-4.8242 5.6289h1.0508c0.64062 0 1.2227 0.36328 1.5039 0.93359 0.28516 0.57031 0.21875 1.2539-0.16797 1.7617l-2.0703 2.7266zm-56.504-12.945c0 5.2461 1.8242 6.8516 3.3594 7.3438v-4.8242c0-0.92969 0.75391-1.6797 1.6797-1.6797 0.92969 0 1.6797 0.75391 1.6797 1.6797v4.8242c1.5352-0.49219 3.3594-2.0977 3.3594-7.3438 0-4.4648-2.9609-9.2422-5.043-9.2422-2.0742 0-5.0352 4.7812-5.0352 9.2422zm33.613 51.258c-0.92969 0-1.6797 0.75391-1.6797 1.6797 0 0.92969 0.75391 1.6797 1.6797 1.6797h8.4023c0.92969 0 1.6797-0.75391 1.6797-1.6797 0-0.92969-0.75-1.6797-1.6797-1.6797zm25.207 8.4023c0-0.92969-0.75391-1.6797-1.6797-1.6797h-15.125c-0.92969 0-1.6797 0.75391-1.6797 1.6797 0 0.92969 0.75391 1.6797 1.6797 1.6797h15.125c0.92969 0 1.6797-0.75 1.6797-1.6797zm-13.445-20.164c0.92969 0 1.6797-0.75391 1.6797-1.6797 0-0.92969-0.75-1.6797-1.6797-1.6797h-1.6797c-0.92969 0-1.6797 0.75391-1.6797 1.6797 0 0.92969 0.75 1.6797 1.6797 1.6797zm25.652 25.207h-12.082c-0.92969 0-1.6797 0.75391-1.6797 1.6797 0 0.92969 0.75391 1.6797 1.6797 1.6797h12.086c0.92969 0 1.6797-0.75391 1.6797-1.6797 0-0.92969-0.75391-1.6797-1.6836-1.6797z"/>
</svg>
