<?xml version="1.0" encoding="UTF-8"?>
<svg width="100pt" height="100pt" version="1.1" viewBox="0 0 100 100" xmlns="http://www.w3.org/2000/svg">
 <path d="m46.238 4.6875c-3.4883 0-6.3438 2.8555-6.3438 6.3438v3.6445c-2.6875 0.76953-5.2812 1.8398-7.7266 3.1992l-2.5742-2.5742c-2.4688-2.4688-6.5078-2.4688-8.9766 0l-5.3164 5.3164c-2.4688 2.4688-2.4688 6.5078 0 8.9766l2.5742 2.5742c-1.3555 2.4453-2.4297 5.0391-3.1992 7.7266h-3.6445c-3.4883 0-6.3438 2.8555-6.3438 6.3438v7.5234c0 3.4883 2.8555 6.3438 6.3438 6.3438h3.6445c0.76953 2.6875 1.8398 5.2812 3.1992 7.7266l-2.5742 2.5742c-2.4688 2.4688-2.4688 6.5078 0 8.9766l5.3164 5.3164c2.4688 2.4688 6.5078 2.4688 8.9766 0l2.5742-2.5742c2.4453 1.3555 5.0391 2.4297 7.7266 3.1992v3.6445c0 3.4883 2.8555 6.3438 6.3438 6.3438h7.5234c3.4883 0 6.3438-2.8555 6.3438-6.3438v-3.6445c2.6875-0.76953 5.2812-1.8398 7.7266-3.1992l2.5742 2.5742c2.4688 2.4688 6.5078 2.4688 8.9766 0l5.3164-5.3164c2.4688-2.4688 2.4688-6.5078 0-8.9766l-2.5742-2.5742c1.3555-2.4453 2.4297-5.0391 3.1992-7.7266h3.6445c3.4883 0 6.3438-2.8555 6.3438-6.3438v-7.5234c0-3.4883-2.8555-6.3438-6.3438-6.3438h-3.6289c-0.76953-2.6914-1.8438-5.2891-3.2031-7.7344l2.5664-2.5664c2.4688-2.4688 2.4688-6.5078 0-8.9766l-5.3164-5.3164c-2.4688-2.4688-6.5078-2.4688-8.9766 0l-2.5664 2.5664c-2.4492-1.3594-5.043-2.4336-7.7344-3.2031v-3.6289c0-3.4883-2.8555-6.3438-6.3438-6.3438zm0 3.125h7.5234c1.8125 0 3.2188 1.4062 3.2188 3.2188v4.8281c0 0.71484 0.48828 1.3398 1.1836 1.5156 3.2148 0.80469 6.293 2.0781 9.1328 3.7852v-0.003906c0.61719 0.37109 1.4023 0.27344 1.9102-0.23438l3.4102-3.4102c1.2812-1.2812 3.2773-1.2812 4.5586 0l5.3164 5.3164c1.2812 1.2812 1.2812 3.2734 0 4.5586l-3.4102 3.4102-0.003906-0.003906c-0.50781 0.50781-0.60547 1.293-0.23438 1.9102 1.7031 2.8398 2.9805 5.918 3.7852 9.1328h-0.003906c0.17578 0.69531 0.80078 1.1836 1.5156 1.1836h4.8242c1.8125 0 3.2188 1.4062 3.2188 3.2188v7.5234c0 1.8125-1.4062 3.2188-3.2188 3.2188h-4.8438 0.003906c-0.71484 0-1.3398 0.48828-1.5156 1.1836-0.80469 3.2109-2.0742 6.2852-3.7773 9.125h0.003907c-0.37109 0.61719-0.27344 1.4023 0.23437 1.9102l3.418 3.418c1.2812 1.2812 1.2812 3.2773 0 4.5586l-5.3164 5.3164c-1.2812 1.2812-3.2773 1.2812-4.5586 0l-3.418-3.418 0.003907-0.003907c-0.50781-0.50781-1.293-0.60547-1.9102-0.23828-2.8398 1.6992-5.9141 2.9727-9.125 3.7773-0.69531 0.17578-1.1836 0.80078-1.1836 1.5156v4.8398c0 1.8125-1.4062 3.2188-3.2188 3.2188h-7.5234c-1.8125 0-3.2188-1.4062-3.2188-3.2188v-4.8398c0-0.71484-0.48828-1.3398-1.1836-1.5156-3.2109-0.80469-6.2852-2.0742-9.125-3.7773-0.61328-0.36719-1.4023-0.26953-1.9062 0.23828l-3.418 3.418c-1.2812 1.2812-3.2773 1.2812-4.5586 0l-5.3164-5.3164c-1.2812-1.2812-1.2812-3.2773 0-4.5586l3.418-3.418v0.003907c0.50781-0.50781 0.60547-1.293 0.23828-1.9102-1.6992-2.8398-2.9727-5.9141-3.7773-9.125-0.17188-0.69531-0.79688-1.1836-1.5156-1.1836h-4.8438c-1.8125 0-3.2188-1.4062-3.2188-3.2188v-7.5234c0-1.8125 1.4062-3.2188 3.2188-3.2188h4.8438c0.71484 0 1.3398-0.48828 1.5156-1.1836 0.80469-3.2109 2.0742-6.2852 3.7773-9.125 0.36719-0.61719 0.26953-1.4023-0.23828-1.9102l-3.418-3.418c-1.2812-1.2812-1.2812-3.2734 0-4.5586l5.3164-5.3164c1.2812-1.2812 3.2773-1.2812 4.5586 0l3.418 3.418-0.003907 0.003907c0.50781 0.50781 1.293 0.60547 1.9102 0.23828 2.8398-1.6992 5.9141-2.9727 9.125-3.7773 0.69531-0.17578 1.1836-0.80078 1.1836-1.5156v-4.8438c0-1.8125 1.4062-3.2188 3.2188-3.2188zm3.7617 19.961c-12.258 0-22.227 9.9688-22.227 22.227s9.9688 22.227 22.227 22.227 22.227-9.9688 22.227-22.227-9.9688-22.227-22.227-22.227zm0 3.125c10.566 0 19.102 8.5352 19.102 19.102s-8.5352 19.102-19.102 19.102-19.102-8.5352-19.102-19.102 8.5352-19.102 19.102-19.102z" fill-rule="evenodd"/>
</svg>
