<?xml version="1.0" encoding="UTF-8"?>
<svg width="100pt" height="100pt" version="1.1" viewBox="0 0 100 100" xmlns="http://www.w3.org/2000/svg">
 <g>
  <path d="m80.613 48.891h-15.613c-1.1055 0-2-0.89453-2-2s0.89453-2 2-2h15.613c4.3672 0 7.4922-1.4453 8.7969-4.0664 1.1289-2.2695 0.77344-5.1797-0.91016-7.4062-1.8008-2.3789-4.7031-3.3945-7.9531-2.7812-0.76562 0.14062-1.543-0.16797-1.9961-0.80469-0.45312-0.63281-0.49609-1.4727-0.11328-2.1484 2.332-4.1094-0.011719-7.6445-2.7266-9.4219-3.4297-2.2422-8.6719-2.5859-12.086 1.9766-0.66016 0.88281-1.9141 1.0625-2.8008 0.40234-0.88281-0.66016-1.0625-1.9141-0.40234-2.8008 4.7383-6.3242 12.379-6.2578 17.477-2.9258 4.2617 2.7891 6.168 7.2383 5.2383 11.574 3.4336 0.21094 6.4961 1.793 8.5547 4.5195 2.5938 3.4297 3.1055 7.9805 1.3047 11.602-1.1758 2.3438-4.3359 6.2812-12.383 6.2812z"/>
  <path d="m31.332 48.891h-13.152c-5.2891 0-9.3828-2.5664-11.234-7.043-2.1367-5.168-0.72266-11.875 3.3633-15.949 3.7656-3.7539 9.1602-4.8633 15.098-3.1914 0.375-5.6992 3.2383-10.555 8.1289-13.605 6.6016-4.1211 15.82-4.2539 22.414-0.32812 6.1211 3.6484 9.2227 10.078 8.7266 18.109-0.066406 1.1016-1.0117 1.957-2.1211 1.8711-1.1016-0.066406-1.9414-1.0195-1.8711-2.1172 0.51172-8.2773-3.4062-12.414-6.7812-14.426-5.3594-3.1953-12.863-3.0742-18.25 0.28516-4.4727 2.7891-6.6836 7.3594-6.2305 12.867 0.058594 0.69531-0.25391 1.3711-0.81641 1.7812-0.5625 0.41016-1.3008 0.49609-1.9453 0.23047-5.5352-2.3086-10.34-1.8242-13.527 1.3555-2.9883 2.9805-4.0352 7.8555-2.4922 11.59 0.86328 2.0859 2.8711 4.5703 7.5391 4.5703h13.152c1.1055 0 2 0.89453 2 2 0 1.1016-0.89453 2-2 2z"/>
  <path d="m32.578 94.098c-0.42578 0-0.85156-0.13672-1.2109-0.40625-0.78906-0.60156-1.0195-1.6836-0.54297-2.5508l13.23-24.172-14.473-0.003906c-0.70703 0-1.3633-0.375-1.7227-0.98438s-0.37109-1.3633-0.027344-1.9844l16.773-30.27c0.35156-0.63672 1.0234-1.0312 1.75-1.0312h17.883c0.70703 0 1.3594 0.37109 1.7188 0.98047 0.35938 0.60547 0.375 1.3594 0.035157 1.9805l-9.6484 17.703h14.074c0.8125 0 1.5469 0.49219 1.8555 1.2461 0.30469 0.75391 0.125 1.6172-0.46094 2.1875l-37.84 36.738c-0.38672 0.375-0.88672 0.56641-1.3945 0.56641zm0.39844-31.133h14.449c0.70703 0 1.3594 0.37109 1.7227 0.98047 0.35937 0.60547 0.37109 1.3594 0.035156 1.9805l-8.4805 15.496 24.785-24.066h-12.512c-0.70703 0-1.3594-0.37109-1.7188-0.98047-0.35937-0.60547-0.375-1.3594-0.035156-1.9805l9.6484-17.703-13.336 0.003906z"/>
 </g>
</svg>
