<?xml version="1.0" encoding="UTF-8"?>
<svg fill="#37373B" width="100pt" height="100pt" version="1.1" viewBox="0 0 100 100" xmlns="http://www.w3.org/2000/svg">
 <g>
  <path d="m41.297 47.828c-1.3047 1.9297-1.7188 4.3242-1.1406 6.5781-3.0156 2.3594-5.6406 5.5625-5.6406 9.5781 0.18359 0.66016 0.77734 1.1211 1.4648 1.1406 0.68359 0.015625 1.3008-0.41406 1.5195-1.0625 0.25781-2.7891 1.7461-5.3164 4.0625-6.8906 1.4102 1.4766 3.3828 2.2773 5.4219 2.2031 1.332-0.015625 2.6445-0.28516 3.875-0.79688 2.707-1.0781 5.0977-2.8203 6.9531-5.0625 2.207-2.6602 3.8789-5.7188 4.9219-9.0156 0.03125-0.71094-0.42188-1.3555-1.1016-1.5625-0.67969-0.21094-1.4141 0.066406-1.7891 0.67188-0.09375 0.3125-0.9375 0.32812-1.1875 0.32812-1.3555-0.078125-2.6953-0.30859-4-0.6875-0.67188-0.15625-1.25-0.29688-1.6719-0.35938-4.5273-0.79688-9.1016 1.1367-11.688 4.9375zm9.6719-2.0625c0.52344-0.003906 1.0469 0.03125 1.5625 0.10938 0.34375 0 0.82812 0.17188 1.3906 0.3125 1.4883 0.41406 3.0195 0.66797 4.5625 0.76562-0.80469 1.6797-1.8125 3.2539-3 4.6875-1.5117 1.8555-3.4688 3.3047-5.6875 4.2031-1.8203 0.94922-4.0234 0.75781-5.6562-0.48438 1.8555-1.168 3.8203-2.1641 5.8594-2.9688 0.37891-0.125 0.69141-0.39844 0.86719-0.75781 0.17187-0.35937 0.19531-0.77344 0.054687-1.1484-0.29297-0.76172-1.125-1.1719-1.9062-0.9375-2.1445 0.78906-4.2031 1.7812-6.1562 2.9688 0.007813-1.1133 0.33594-2.1992 0.95312-3.125 1.5938-2.3711 4.3047-3.7422 7.1562-3.625z"/>
  <path d="m20.312 65.125c0 1.6953-1.3516 3.082-3.0469 3.125-0.76562 0-2.1719-0.375-2.1719-1.2969 0-0.41406-0.16406-0.8125-0.45703-1.1055-0.29297-0.29297-0.69141-0.45703-1.1055-0.45703-0.86328 0-1.5625 0.69922-1.5625 1.5625 0 2.7969 2.6719 4.3125 5.1875 4.3125 1.6562 0.054687 3.2656-0.57031 4.4531-1.7266 1.1836-1.1602 1.8477-2.7539 1.8281-4.4141 0-3.3867-2.6953-6.1562-6.0781-6.25h-13.547c-0.67969 0.18359-1.1523 0.80078-1.1523 1.5078 0 0.70703 0.47266 1.3242 1.1523 1.5078h13.469c1.6992 0.12109 3.0195 1.5312 3.0312 3.2344z"/>
  <path d="m90.625 37.719c0-3.3477-2.7148-6.0625-6.0625-6.0625-2.5156 0-5.1875 1.5625-5.1875 4.3125 0.18359 0.67969 0.80078 1.1523 1.5078 1.1523 0.70703 0 1.3242-0.47266 1.5078-1.1523 0-0.92188 1.4062-1.2969 2.1719-1.2969 1.6641 0.042969 3.0039 1.3828 3.0469 3.0469 0.019531 1.7617-1.3633 3.2227-3.125 3.2969h-13.422c-0.46875-0.12891-0.97266-0.027344-1.3594 0.26562-0.38672 0.29688-0.61328 0.75391-0.61328 1.2422 0 0.48828 0.22656 0.94531 0.61328 1.2422 0.38672 0.29297 0.89062 0.39453 1.3594 0.26562h13.453c3.4219-0.078125 6.1445-2.8906 6.1094-6.3125z"/>
  <path d="m65.625 28.125h-13.469c-0.46875-0.12891-0.97266-0.027344-1.3594 0.26562-0.38672 0.29688-0.61328 0.75391-0.61328 1.2422 0 0.48828 0.22656 0.94531 0.61328 1.2422 0.38672 0.29297 0.89062 0.39453 1.3594 0.26562h13.469c5.8828-0.21875 10.535-5.0508 10.531-10.938-0.007812-5.8086-4.7227-10.516-10.531-10.516-4.0781 0-8.4375 2.4688-8.4375 7.0469-0.070312 2.5664 1.4062 4.9219 3.75 5.9688 2.0625 0.85156 4.4336 0.33594 5.9531-1.2969 0.35938-0.61719 0.25391-1.3984-0.25391-1.8984-0.50781-0.5-1.2891-0.59375-1.9023-0.22656-0.65234 0.76953-1.7305 1.0234-2.6562 0.625-1.2109-0.5625-1.9766-1.7891-1.9531-3.125 0-2.9531 3.25-4.0312 5.4219-4.0312 4.1406 0 7.5 3.3594 7.5 7.5-0.03125 4.1641-3.2695 7.5977-7.4219 7.875z"/>
  <path d="m43.828 28.125h-7.4219c-5.3477 0.007812-9.6797 4.3398-9.6875 9.6875 0.18359 0.67969 0.80078 1.1523 1.5078 1.1523 0.70703 0 1.3242-0.47266 1.5078-1.1523 0.058594-3.6406 3.0312-6.5625 6.6719-6.5625h7.4219c0.46875 0.12891 0.97266 0.027344 1.3594-0.26562 0.38672-0.29688 0.61328-0.75391 0.61328-1.2422 0-0.48828-0.22656-0.94531-0.61328-1.2422-0.38672-0.29297-0.89062-0.39453-1.3594-0.26562z"/>
  <path d="m61.297 82.578c0.6875-0.28125 1.4805-0.10938 1.9844 0.4375 0.24219 0.42188 0.66406 0.71094 1.1445 0.77734 0.48438 0.0625 0.96875-0.097657 1.3125-0.44141 0.34766-0.34375 0.51172-0.82812 0.44922-1.3086-0.0625-0.48438-0.34375-0.91016-0.76562-1.1523-1.3516-1.4336-3.4531-1.8711-5.2656-1.0938-1.8906 0.78906-3.125 2.6367-3.125 4.6875 0 3.75 3.6562 5.7812 7.0938 5.7812 4.668 0 8.4531-3.7852 8.4531-8.4531 0-4.7422-3.7734-8.6211-8.5156-8.75h-20.438c-0.67969 0.18359-1.1523 0.80078-1.1523 1.5078 0 0.70703 0.47266 1.3242 1.1523 1.5078h20.438c3.0664 0.16797 5.4648 2.7109 5.4531 5.7812 0 1.4453-0.57422 2.832-1.5977 3.8516-1.0234 1.0195-2.4102 1.5898-3.8555 1.5859-1.6875 0-4.0781-0.85938-4.0781-2.7656-0.011719-0.85938 0.51172-1.6406 1.3125-1.9531z"/>
  <path d="m35.938 73.062h-5.0938c-0.46875-0.12891-0.97266-0.027344-1.3594 0.26562-0.38672 0.29688-0.61328 0.75391-0.61328 1.2422 0 0.48828 0.22656 0.94531 0.61328 1.2422 0.38672 0.29297 0.89062 0.39453 1.3594 0.26562h5.0938c0.46875 0.12891 0.97266 0.027344 1.3594-0.26562 0.38672-0.29688 0.61328-0.75391 0.61328-1.2422 0-0.48828-0.22656-0.94531-0.61328-1.2422-0.38672-0.29297-0.89062-0.39453-1.3594-0.26562z"/>
  <path d="m9.0469 50.969c0 0.41406 0.16406 0.8125 0.45703 1.1055 0.29297 0.29297 0.69141 0.45703 1.1055 0.45703h17.625c0.67969-0.18359 1.1523-0.80078 1.1523-1.5078 0-0.70703-0.47266-1.3242-1.1523-1.5078h-17.688c-0.79688 0.03125-1.4453 0.65625-1.5 1.4531z"/>
  <path d="m91.609 54.141h-13.484c-0.67969 0.18359-1.1523 0.80078-1.1523 1.5078 0 0.70703 0.47266 1.3242 1.1523 1.5078h13.469c1.7578 0.082031 3.1367 1.5391 3.125 3.2969 0 0.82812-0.32812 1.625-0.91406 2.2109-0.58594 0.58594-1.3828 0.91406-2.2109 0.91406-0.75 0-2.1562-0.375-2.1562-1.2969-0.18359-0.67969-0.80078-1.1523-1.5078-1.1523-0.70703 0-1.3242 0.47266-1.5078 1.1523 0 2.8125 2.6719 4.3125 5.1719 4.3125 3.3516 0 6.0703-2.7109 6.0781-6.0625 0.078125-3.4336-2.6289-6.2891-6.0625-6.3906z"/>
  <path d="m70.594 54.141h-6.3906c-0.46875-0.12891-0.97266-0.027344-1.3594 0.26562-0.38672 0.29688-0.61328 0.75391-0.61328 1.2422 0 0.48828 0.22656 0.94531 0.61328 1.2422 0.38672 0.29297 0.89062 0.39453 1.3594 0.26562h6.3906c0.67969-0.18359 1.1523-0.80078 1.1523-1.5078 0-0.70703-0.47266-1.3242-1.1523-1.5078z"/>
 </g>
</svg>
